<?xml version="1.0" encoding="UTF-8"?>
<!DOCTYPE svg PUBLIC "-//W3C//DTD SVG 1.1//EN" "http://www.w3.org/Graphics/SVG/1.1/DTD/svg11.dtd">
<svg xmlns="http://www.w3.org/2000/svg" version="1.1" width="55px" height="55px" style="shape-rendering:geometricPrecision; text-rendering:geometricPrecision; image-rendering:optimizeQuality; fill-rule:evenodd; clip-rule:evenodd" xmlns:xlink="http://www.w3.org/1999/xlink">
<g><path style="opacity:0.186" fill="#dfdfeb" d="M 53.5,4.5 C 53.1667,4.5 52.8333,4.5 52.5,4.5C 51.7109,4.21719 51.0442,3.71719 50.5,3C 34.8369,2.50008 19.1702,2.33341 3.5,2.5C 3.16667,2.5 2.83333,2.5 2.5,2.5C 2.61071,1.88258 2.94404,1.38258 3.5,1C 19.1667,0.333333 34.8333,0.333333 50.5,1C 52.4257,1.42244 53.4257,2.5891 53.5,4.5 Z"/></g>
<g><path style="opacity:1" fill="#323493" d="M 3.5,2.5 C 19.1702,2.33341 34.8369,2.50008 50.5,3C 51.0442,3.71719 51.7109,4.21719 52.5,4.5C 52.6666,19.837 52.4999,35.1703 52,50.5C 51.5,51 51,51.5 50.5,52C 35.1703,52.4999 19.837,52.6666 4.5,52.5C 3.54163,52.0472 2.7083,51.3805 2,50.5C 1.33333,35.1667 1.33333,19.8333 2,4.5C 2.71719,3.9558 3.21719,3.28913 3.5,2.5 Z"/></g>
<g><path style="opacity:0.624" fill="#e3e4ec" d="M 2.5,2.5 C 2.83333,2.5 3.16667,2.5 3.5,2.5C 3.21719,3.28913 2.71719,3.9558 2,4.5C 1.33333,19.8333 1.33333,35.1667 2,50.5C 2.7083,51.3805 3.54163,52.0472 4.5,52.5C 4.5,52.8333 4.5,53.1667 4.5,53.5C 2.98261,53.4894 1.81595,52.8228 1,51.5C 0.333333,35.5 0.333333,19.5 1,3.5C 1.38258,2.94404 1.88258,2.61071 2.5,2.5 Z"/></g>
<g><path style="opacity:1" fill="#6f77b0" d="M 22.5,5.5 C 37.0316,5.20312 44.5316,12.2031 45,26.5C 41.0011,39.2517 32.5011,43.7517 19.5,40C 9.20809,33.4407 6.70809,24.6073 12,13.5C 14.94,9.96319 18.44,7.29652 22.5,5.5 Z"/></g>
<g><path style="opacity:1" fill="#e56e70" d="M 36.5,19.5 C 36.5,19.8333 36.5,20.1667 36.5,20.5C 36.5,22.8333 36.5,25.1667 36.5,27.5C 36.1667,27.5 35.8333,27.5 35.5,27.5C 34.0015,25.7422 33.6681,23.9088 34.5,22C 33.2506,21.2599 32.2506,21.4265 31.5,22.5C 30.8333,22.1667 30.1667,21.8333 29.5,21.5C 30.4122,17.7956 29.4122,17.4623 26.5,20.5C 26.5654,20.0618 26.3988,19.7284 26,19.5C 24.6976,20.0848 23.531,20.7515 22.5,21.5C 23.1667,22.8333 23.8333,24.1667 24.5,25.5C 23.8555,28.9386 24.8555,29.272 27.5,26.5C 27.9377,27.5063 28.6043,27.5063 29.5,26.5C 29.5,26.8333 29.5,27.1667 29.5,27.5C 29.5,27.8333 29.5,28.1667 29.5,28.5C 26.7543,30.1264 23.7543,30.7931 20.5,30.5C 20.5,29.5 20.5,28.5 20.5,27.5C 19.5,27.5 18.5,27.5 17.5,27.5C 17.5,25.1667 17.5,22.8333 17.5,20.5C 17.5,20.1667 17.5,19.8333 17.5,19.5C 22.614,19.0496 27.614,18.0496 32.5,16.5C 32.5,17.5 32.5,18.5 32.5,19.5C 33.8333,19.5 35.1667,19.5 36.5,19.5 Z"/></g>
<g><path style="opacity:1" fill="#8fafc0" d="M 14.5,20.5 C 15.5,20.5 16.5,20.5 17.5,20.5C 17.5,22.8333 17.5,25.1667 17.5,27.5C 20.4635,33.1452 25.1301,34.9785 31.5,33C 38.442,29.0524 37.7753,27.5524 29.5,28.5C 29.5,28.1667 29.5,27.8333 29.5,27.5C 31.5,27.5 33.5,27.5 35.5,27.5C 35.8333,27.5 36.1667,27.5 36.5,27.5C 37.1667,27.8333 37.8333,28.1667 38.5,28.5C 38.4142,29.4959 38.7476,30.3292 39.5,31C 38.376,31.2492 37.376,31.7492 36.5,32.5C 37.6034,32.9976 38.6034,33.3309 39.5,33.5C 33.9709,39.5142 27.3042,41.0142 19.5,38C 16.2832,36.2845 13.9498,33.7845 12.5,30.5C 13.2389,30.631 13.9056,30.4643 14.5,30C 15.5799,27.1065 15.5799,23.9398 14.5,20.5 Z"/></g>
<g><path style="opacity:1" fill="#afdbd1" d="M 17.5,27.5 C 18.5,27.5 19.5,27.5 20.5,27.5C 20.5,28.5 20.5,29.5 20.5,30.5C 23.7543,30.7931 26.7543,30.1264 29.5,28.5C 37.7753,27.5524 38.442,29.0524 31.5,33C 25.1301,34.9785 20.4635,33.1452 17.5,27.5 Z"/></g>
<g><path style="opacity:1" fill="#ed4d4f" d="M 35.5,27.5 C 33.5,27.5 31.5,27.5 29.5,27.5C 29.5,27.1667 29.5,26.8333 29.5,26.5C 31.1765,25.8166 31.8432,24.4832 31.5,22.5C 32.2506,21.4265 33.2506,21.2599 34.5,22C 33.6681,23.9088 34.0015,25.7422 35.5,27.5 Z"/></g>
<g><path style="opacity:1" fill="#ec292e" d="M 29.5,21.5 C 28.4625,22.9303 27.7959,24.597 27.5,26.5C 24.8555,29.272 23.8555,28.9386 24.5,25.5C 25.5375,24.0697 26.2041,22.403 26.5,20.5C 29.4122,17.4623 30.4122,17.7956 29.5,21.5 Z"/></g>
<g><path style="opacity:1" fill="#ec3036" d="M 22.5,21.5 C 22.5,22.8333 22.5,24.1667 22.5,25.5C 21.5,25.5 20.5,25.5 19.5,25.5C 19.5,24.1667 19.5,22.8333 19.5,21.5C 20.5,21.5 21.5,21.5 22.5,21.5 Z"/></g>
<g><path style="opacity:1" fill="#fce8e9" d="M 29.5,21.5 C 30.1667,21.8333 30.8333,22.1667 31.5,22.5C 31.8432,24.4832 31.1765,25.8166 29.5,26.5C 28.6043,27.5063 27.9377,27.5063 27.5,26.5C 27.7959,24.597 28.4625,22.9303 29.5,21.5 Z"/></g>
<g><path style="opacity:1" fill="#fbe7e7" d="M 26.5,20.5 C 26.2041,22.403 25.5375,24.0697 24.5,25.5C 23.8333,24.1667 23.1667,22.8333 22.5,21.5C 23.531,20.7515 24.6976,20.0848 26,19.5C 26.3988,19.7284 26.5654,20.0618 26.5,20.5 Z"/></g>
<g><path style="opacity:1" fill="#a0c9cb" d="M 39.5,14.5 C 44.1327,19.6744 44.6327,25.3411 41,31.5C 40.7645,29.8807 39.9311,28.8807 38.5,28.5C 37.8333,28.1667 37.1667,27.8333 36.5,27.5C 36.5,25.1667 36.5,22.8333 36.5,20.5C 37.2216,20.9175 37.7216,21.5842 38,22.5C 39.1667,21.3333 40.3333,20.1667 41.5,19C 40.5,18.6667 39.5,18.3333 38.5,18C 39.3366,16.9887 39.67,15.8221 39.5,14.5 Z"/></g>
<g><path style="opacity:1" fill="#83a1bc" d="M 39.5,14.5 C 39.67,15.8221 39.3366,16.9887 38.5,18C 39.5,18.3333 40.5,18.6667 41.5,19C 40.3333,20.1667 39.1667,21.3333 38,22.5C 37.7216,21.5842 37.2216,20.9175 36.5,20.5C 36.5,20.1667 36.5,19.8333 36.5,19.5C 35.0483,15.2686 32.0483,13.2686 27.5,13.5C 22.8378,13.4898 19.5045,15.4898 17.5,19.5C 17.5,19.8333 17.5,20.1667 17.5,20.5C 16.5,20.5 15.5,20.5 14.5,20.5C 13.6236,20.6309 12.9569,20.2975 12.5,19.5C 13.3636,17.8035 14.6969,16.6368 16.5,16C 16.1667,15.6667 15.8333,15.3333 15.5,15C 17.3543,12.3363 19.6876,11.503 22.5,12.5C 23.2432,11.0921 24.0766,9.75881 25,8.5C 25.3076,9.30806 25.8076,9.97473 26.5,10.5C 28.3682,10.0539 30.2015,9.72052 32,9.5C 33.9067,12.1045 36.4067,13.7712 39.5,14.5 Z"/></g>
<g><path style="opacity:1" fill="#b0d7ce" d="M 36.5,19.5 C 35.1667,19.5 33.8333,19.5 32.5,19.5C 32.5,18.5 32.5,17.5 32.5,16.5C 27.614,18.0496 22.614,19.0496 17.5,19.5C 19.5045,15.4898 22.8378,13.4898 27.5,13.5C 32.0483,13.2686 35.0483,15.2686 36.5,19.5 Z"/></g>
<g><path style="opacity:1" fill="#9ec6ca" d="M 39.5,14.5 C 36.4067,13.7712 33.9067,12.1045 32,9.5C 30.2015,9.72052 28.3682,10.0539 26.5,10.5C 25.8076,9.97473 25.3076,9.30806 25,8.5C 24.0766,9.75881 23.2432,11.0921 22.5,12.5C 19.6876,11.503 17.3543,12.3363 15.5,15C 15.8333,15.3333 16.1667,15.6667 16.5,16C 14.6969,16.6368 13.3636,17.8035 12.5,19.5C 12.9569,20.2975 13.6236,20.6309 14.5,20.5C 15.5799,23.9398 15.5799,27.1065 14.5,30C 13.9056,30.4643 13.2389,30.631 12.5,30.5C 8.80737,19.3855 12.474,11.8855 23.5,8C 30.3997,6.7892 35.7331,8.95587 39.5,14.5 Z"/></g>
<g><path style="opacity:1" fill="#b9b9d7" d="M 43.5,48.5 C 43.5662,46.917 43.2328,45.2503 42.5,43.5C 44.3139,42.2598 45.3139,42.9265 45.5,45.5C 45.5466,47.0377 44.8799,48.0377 43.5,48.5 Z"/></g>
<g><path style="opacity:1" fill="#c4c5dd" d="M 39.5,43.5 C 41.1376,44.7046 41.4709,46.0379 40.5,47.5C 39.8826,47.6107 39.3826,47.944 39,48.5C 38.3333,43.1667 37.6667,43.1667 37,48.5C 36.654,46.7818 36.154,45.1151 35.5,43.5C 36.8084,42.3744 38.1417,42.3744 39.5,43.5 Z"/></g>
<g><path style="opacity:1" fill="#9898c6" d="M 26.5,42.5 C 26.2587,44.8863 26.9254,46.8863 28.5,48.5C 26.5,48.5 24.5,48.5 22.5,48.5C 22.4042,44.6893 21.7376,44.6893 20.5,48.5C 19.2624,44.6893 18.5958,44.6893 18.5,48.5C 15.2875,48.274 12.2875,48.1073 9.5,48C 8.59391,46.3005 8.26057,44.4672 8.5,42.5C 14.5,42.5 20.5,42.5 26.5,42.5 Z"/></g>
<g><path style="opacity:1" fill="#b1b1d2" d="M 26.5,42.5 C 28.205,43.5353 29.8716,43.5353 31.5,42.5C 32.2508,43.376 32.7508,44.376 33,45.5C 33.3333,44.8333 33.6667,44.1667 34,43.5C 34.6667,45.1667 34.6667,46.8333 34,48.5C 32.1843,48.3509 30.351,48.3509 28.5,48.5C 26.9254,46.8863 26.2587,44.8863 26.5,42.5 Z"/></g>
<g><path style="opacity:1" fill="#7b7bb6" d="M 39.5,43.5 C 40.3478,42.375 41.3478,42.375 42.5,43.5C 43.2328,45.2503 43.5662,46.917 43.5,48.5C 42.209,48.7373 41.209,48.404 40.5,47.5C 41.4709,46.0379 41.1376,44.7046 39.5,43.5 Z"/></g>
<g><path style="opacity:0.804" fill="#dedeeb" d="M 52.5,4.5 C 52.8333,4.5 53.1667,4.5 53.5,4.5C 53.5,5.16667 53.8333,5.5 54.5,5.5C 54.5,20.1667 54.5,34.8333 54.5,49.5C 53.1667,51.5 51.5,53.1667 49.5,54.5C 34.5,54.5 19.5,54.5 4.5,54.5C 4.5,54.1667 4.5,53.8333 4.5,53.5C 4.5,53.1667 4.5,52.8333 4.5,52.5C 19.837,52.6666 35.1703,52.4999 50.5,52C 51,51.5 51.5,51 52,50.5C 52.4999,35.1703 52.6666,19.837 52.5,4.5 Z"/></g>
</svg>
